<?xml version="1.0" encoding="UTF-8" standalone="no"?>
<svg
   xmlns:svg="http://www.w3.org/2000/svg"
   width="450"
   height="850"
   viewBox="0 0 450 850"
   version="1.1"
   style="clip-rule:evenodd;fill-rule:evenodd;stroke-linecap:round;stroke-linejoin:round;stroke-miterlimit:1.5"
   >
    
    
    
    <path
   d="m 412.86981,544.35136 c -4.96318,13.69715 -24.15334,7.5509 -24.15334,7.5509 -17.51983,-3.2198 -24.1365,-3.79483 -28.7029,-8.50792 L 282.31334,375.90329 c -5.21595,-11.24353 -0.82447,-25.68856 9.80115,-32.2368 l 3.83664,-2.36441 c 10.62561,-6.54825 23.48732,-2.73584 28.70327,8.50769 l 59.34049,163.90074 c 5.21595,11.24353 33.81885,16.99912 28.87492,30.64085 z"
   style="clip-rule:evenodd;fill:#f2c196;fill-rule:evenodd;stroke:#000000;stroke-width:5.488;stroke-linecap:butt;stroke-linejoin:miter;stroke-miterlimit:1.5;stroke-dasharray:none"
   id="path10-4" /><g
   transform="matrix(-0.683163,1.47263,0.371876,0.229176,76.611095,-253.21)"
   id="g12">
        
    </g>
    
    
    
    <path
   d="m 121.15496,535.33559 c 27.61901,0.837 83.34401,0.391 130.13601,0 41.073,-0.344 75.264,-0.645 77.523,0 0.411,5.318 0.543,13.299 0.509,14.252 -0.534,14.895 -1.074,21.253 -6.413,50.063 -6.205,33.484 -16.12,76.009 -26.281,114.224 -8.456,31.806 -17.084,60.626 -23.885,78.763 0,0 7.823,20.297 0.044,26.199 -12.461,9.453 -32.969,1.569 -40.703,-8.94 -2.741,-3.724 -6.255,-9.947 -7.085,-17.827 -0.076,-0.028 -0.009,0.05 -10e-4,0.007 -0.831,7.877 -5.122,14.097 -7.862,17.82 -7.734,10.509 -28.241,18.393 -40.702,8.94 -3.424,-2.597 -4.216,-7.824 -3.858,-12.933 0.455,-6.5 3.902,-13.266 3.902,-13.266 -5.829,-15.545 -12.887,-38.936 -20.003,-65.329 -11.164,-41.402 -22.474,-90.19 -29.41801,-127.658 -5.339,-28.81 -5.879,-35.168 -6.412,-50.063 -0.034,-0.953 0.098,-8.934 0.509,-14.252 z"
   style="fill:#f2c196"
   id="path2" /><path
   d="m 224.76497,805.44659 c -1.485,2.741 -3.097,5.042 -4.406,6.821 -4.326,5.878 -12.181,11.089 -20.74,13.442 -8.863,2.436 -18.384,1.789 -25.602,-3.686 -4.382,-3.325 -5.888,-9.86 -5.43,-16.399 0.363,-5.188 2.423,-10.531 3.564,-13.15 -5.746,-15.614 -12.616,-38.457 -19.537,-64.124 -11.192,-41.504 -22.52801,-90.412 -29.48901,-127.972 -5.401,-29.145 -5.937,-35.579 -6.477,-50.647 -0.035,-0.984 0.094,-9.218 0.519,-14.705 0.165,-2.13 1.974,-3.754 4.109,-3.689 27.58701,0.835 83.24501,0.389 129.98201,-0.002 32.912,-0.275 61.413,-0.522 72.655,-0.28 3.379,0.073 5.455,0.278 5.999,0.433 1.608,0.459 2.761,1.871 2.89,3.538 0.424,5.487 0.554,13.721 0.519,14.705 -0.54,15.068 -1.076,21.502 -6.478,50.647 -6.221,33.572 -16.16,76.209 -26.348,114.524 -8.288,31.171 -16.745,59.487 -23.498,77.773 1.097,3.259 3.52,11.317 3.208,18.083 -0.218,4.721 -1.783,8.824 -5,11.265 -7.217,5.475 -16.738,6.122 -25.601,3.686 -8.56,-2.353 -16.415,-7.564 -20.74,-13.442 -1.312,-1.782 -2.78,-4.081 -4.099,-6.821 z m -3.763,-13.611 0.046,-0.579 0.104,-0.28 c -0.031,0.112 -0.059,0.229 -0.082,0.351 0.024,-0.127 0.054,-0.251 0.09,-0.373 l 0.2,-0.539 c 0.071,-0.155 0.151,-0.305 0.239,-0.448 l 0.687,-0.824 c -0.08,0.072 -0.159,0.15 -0.238,0.233 0.082,-0.089 0.168,-0.175 0.257,-0.257 l 0.119,-0.142 0.13,-0.066 c 0.132,-0.102 0.27,-0.195 0.413,-0.28 -0.134,0.081 -0.266,0.171 -0.393,0.27 l 1.327,-0.672 c 0.072,-0.021 0.146,-0.039 0.22,-0.056 l 0.971,-0.096 c 0.055,10e-4 0.111,0.004 0.166,0.008 l 0.966,0.2 c -0.284,-0.096 -0.567,-0.159 -0.847,-0.191 0.069,0.007 0.138,0.015 0.207,0.025 0.266,0.04 0.522,0.104 0.766,0.192 l 0.041,0.008 c 1.426,0.529 2.427,1.82 2.587,3.331 0,0.002 0,0.004 0,0.007 0.741,7.016 3.888,12.551 6.329,15.868 3.408,4.631 9.674,8.616 16.417,10.47 6.44,1.77 13.402,1.632 18.646,-2.346 0.838,-0.635 1.245,-1.635 1.512,-2.741 0.403,-1.673 0.419,-3.591 0.264,-5.523 -0.529,-6.57 -3.135,-13.31 -3.135,-13.31 -0.352,-0.914 -0.357,-1.925 -0.013,-2.843 6.769,-18.05 15.349,-46.733 23.766,-78.386 10.134,-38.115 20.024,-80.529 26.213,-113.925 5.277,-28.474 5.821,-34.757 6.349,-49.477 0.026,-0.732 -0.053,-5.742 -0.286,-10.353 -0.415,-0.015 -0.853,-0.028 -1.299,-0.038 -11.205,-0.241 -39.612,0.007 -72.416,0.282 -44.752,0.374 -97.664,0.796 -126.41401,0.103 -0.219,4.512 -0.293,9.293 -0.268,10.006 0.528,14.72 1.072,21.003 6.348,49.477 6.92701,37.376 18.21001,86.045 29.34701,127.346 7.077,26.245 14.089,49.508 19.886,64.965 0.394,1.051 0.329,2.22 -0.181,3.22 0,0 -3.073,5.98 -3.476,11.731 -0.148,2.115 -0.086,4.256 0.396,6.136 0.344,1.346 0.875,2.56 1.889,3.33 5.244,3.978 12.207,4.116 18.647,2.346 6.743,-1.854 13.009,-5.839 16.417,-10.47 2.425,-3.295 6.296,-8.744 7.086,-15.69 z m 4.24,-3.754 c 0.045,0.004 0.09,0.008 0.135,0.013 -0.04,-0.004 -0.079,-0.007 -0.119,-0.009 z m 0,0 c -0.039,-0.003 -0.078,-0.005 -0.117,-0.007 l 0.055,-0.006 z m -1.205,0.1 c 0.352,-0.088 0.717,-0.125 1.088,-0.107 l -0.033,0.003 c -0.332,-0.008 -0.657,0.025 -0.971,0.096 z m 0,0 c -0.029,0.008 -0.058,0.015 -0.087,0.023 l 0.035,-0.018 z m -1.07,0.45 c 0.312,-0.189 0.641,-0.332 0.983,-0.427 l -0.049,0.025 c -0.329,0.094 -0.642,0.23 -0.934,0.402 z m -1.405,1.382 c 0.149,-0.247 0.315,-0.456 0.486,-0.637 -0.167,0.182 -0.317,0.379 -0.449,0.591 z m 0,0 c -0.06,0.098 -0.116,0.202 -0.169,0.313 l 0.074,-0.199 z m -0.41,0.963 c 0.066,-0.239 0.147,-0.454 0.241,-0.65 l -0.033,0.089 c -0.079,0.173 -0.146,0.353 -0.2,0.539 z"
   id="path4" /><g
   transform="translate(-277.01608,-71.305412)"
   id="g8">
        <path
   d="m 498.002,680.372 c 0.061,-2.207 1.903,-3.948 4.11,-3.887 2.207,0.061 3.948,1.903 3.887,4.11 -0.515,18.485 0.017,140.639 0.017,181.329 0,2.207 -1.792,4 -4,4 -2.208,0 -4,-1.793 -4,-4 0,-40.739 -0.529,-163.043 -0.014,-181.552 z"
   id="path6" />
    </g><path
   d="m 37.130123,544.35136 c 4.96318,13.69715 24.153339,7.5509 24.153339,7.5509 17.519825,-3.2198 24.136498,-3.79483 28.702897,-8.50792 L 167.68659,375.90329 c 5.21595,-11.24353 0.82447,-25.68856 -9.80115,-32.2368 l -3.83664,-2.36441 c -10.62561,-6.54825 -23.48732,-2.73584 -28.70327,8.50769 L 66.005041,513.71051 c -5.21595,11.24353 -33.818854,16.99912 -28.874918,30.64085 z"
   style="clip-rule:evenodd;fill:#f2c196;fill-rule:evenodd;stroke:#000000;stroke-width:5.488;stroke-linecap:butt;stroke-linejoin:miter;stroke-miterlimit:1.5;stroke-dasharray:none"
   id="path10" /><g
   transform="matrix(-0.955605,0,0,1,539.69597,-258.30241)"
   id="g20">
        <path
   d="m 437.402,633.33 c -2.057,42.437 -16.331,73.765 -15.613,89.369 1.772,38.515 17.595,49.682 17.405,79.143 -0.174,27.088 -36.568,62.665 -81.61,62.665 h -52.881 c -45.042,0 -83.382,-33.77 -83.438,-61.665 -0.057,-28.516 17.709,-53.97 17.461,-78.071 -0.247,-23.903 -13.984,-45.612 -15.634,-90.25 -1.649,-44.638 36.569,-77.987 81.611,-77.987 h 52.881 c 45.042,0 81.751,36.911 79.818,76.796 z"
   style="fill:#f2c196;stroke:#000000;stroke-width:8.18px"
   id="path18" />
    </g><g
   transform="matrix(1,0,0,0.905886,-258.55553,-191.23541)"
   id="g24">
        <path
   d="m 626.903,380.043 v 21.156 c 0,76.951 -56.595,139.426 -126.305,139.426 h -34.086 c -69.709,0 -126.304,-62.475 -126.304,-139.426 v -21.156 c 0,-76.952 56.595,-139.427 126.304,-139.427 h 34.086 c 69.71,0 126.305,62.475 126.305,139.427 z"
   style="fill:#f2c196;stroke:#000000;stroke-width:8.38px"
   id="path22" />
    </g><g
   id="Layer1"
   transform="translate(-275.00003,-41.460412)">
        <path
   d="m 438.264,348.172 c 14.513,5.64 26.167,9.852 66.134,9.556 31.971,-0.236 44.539,-6.094 55.392,-9.556 -5.452,-3.935 -13.559,-9.654 -48.104,-8.152 -59.422,2.584 -54.847,-1.136 -73.422,8.152 z"
   style="fill:#572e3e;fill-opacity:0.15"
   id="path26" />
        <g
   transform="matrix(1,0,0,1.00868,0,-5.63524)"
   id="g30">
            <path
   d="m 480.792,648.707 c -0.585,6.946 7.861,138.863 7.931,180.139 0.008,4.751 -0.503,10.639 -2.142,13.577 -1.761,3.159 -5.571,7.966 -9.195,10.451 -4.391,3.01 -8.564,5.397 -11.407,6.78 -5.536,2.695 31.024,-5.127 31.29,-19.379 0.872,-46.85 1.822,-177.792 1.25,-190.946 -5.879,0.33 -11.652,-1.174 -17.727,-0.622 z"
   style="fill:#572e3e;fill-opacity:0.15"
   id="path28" />
        </g>
        <path
   d="m 547.352,834.038 c -0.064,-0.11 4.931,17.552 2.521,22.525 -0.509,1.05 -5.134,6.129 -4.743,3.747 1.614,-9.842 -3.193,-19.265 -4.85,-24.696 -1.617,-5.3 -3.323,-7.729 1.795,-24.154 5.579,-17.903 25.945,-123.713 32.155,-171.843 1.71,-13.249 14.059,-19.255 24.847,-28.845 4.876,-4.334 5.927,4.947 -8.767,70.505 -8.175,36.471 -14.766,60.323 -22.394,86.444 -4.88,16.714 -18.621,60.157 -20.564,66.317 z"
   style="fill:#572e3e;fill-opacity:0.15"
   id="path32" />
        <path
   d="m 329.401,592.179 c 11.263,-5.92 19.689,-8.651 23.978,-11.253 1.8,-1.091 2.099,-2.346 5.175,-8.406 12.814,-25.245 40.302,-92.487 47.213,-98.769 6.299,26.729 -11.476,32.402 -27.546,80.611 -11.527,34.583 -17.844,36.24 -48.82,37.817 z"
   style="fill:#572e3e;fill-opacity:0.15"
   id="path34" />
        <path
   d="m 500,339.775 c -8.276,-0.542 -20.222,-0.553 -26.968,-4.265 41.768,0.114 63.102,-11.989 83.307,-21.613 23.946,-11.405 49.951,-41.243 60.019,-61.786 7.401,-15.104 20.197,-50.612 25.547,-83.9 1.349,51.265 1.137,100.015 -44.495,143.568 -18.495,17.652 -59.93,30.451 -97.41,27.996 z"
   style="fill:#572e3e;fill-opacity:0.15"
   id="path36" />
        <g
   transform="matrix(-1,0,0,1,1000.56,0)"
   id="g40">
            <path
   d="m 329.401,592.179 c 11.263,-5.92 19.689,-8.651 23.978,-11.253 1.8,-1.091 2.099,-2.346 5.175,-8.406 12.814,-25.245 40.302,-92.487 47.213,-98.769 1.28105,5.43596 3.49048,10.24155 2.99694,14.47064 -1.93324,16.56566 -17.74115,27.73578 -30.54294,66.14036 -11.527,34.583 -17.844,36.24 -48.82,37.817 z"
   style="fill:#572e3e;fill-opacity:0.15"
   id="path38"
   sodipodi:nodetypes="ccscscc" />
        </g>
        <path
   d="m 573.666,628.492 c -0.074,-0.239 15.747,-30.229 9.966,-66.84 -5.188,-32.859 -18.128,-48.596 -4.895,-75.062 11.735,-23.47 17.004,-23.012 21.621,-46.098 -21.257,61.644 -20.102,63.905 0,122.384 7.87,22.895 -4.126,51.187 -13.87,57.521 -1.2,0.78 -12.822,8.334 -14.686,10.199"
   style="fill:#572e3e;fill-opacity:0.15"
   id="path42" />
    </g>
</svg>
